{"title":"2012 (2009) EESTI SUB","uid":9035843,"size":1781405114,"categoryP":"video","categoryS":"movies","magnet":"?xt=urn:btih:004379c9b5c290d36af9189f66df257b96b98a7b&amp;dn=2012+%282009%29+EESTI+SUB&amp;tr=udp%3A%2F%2Ftracker.openbittorrent.com%3A80&amp;tr=udp%3A%2F%2Fopen.demonii.com%3A1337&amp;tr=udp%3A%2F%2Ftracker.coppersurfer.tk%3A6969&amp;tr=udp%3A%2F%2Fexodus.desync.com%3A6969","seeders":1,"leechers":0,"uploader":"immri","files":1,"time":1381503614,"description":"Format                                   : AVI\nFormat/Info                              : Audio Video Interleave\nFile size                                : 1.66 GiB\nDuration                                 : 2h 37mn\nOverall bit rate                         : 1 505 Kbps\n\nVideo\nID                                       : 0\nFormat                                   : MPEG-4 Visual\nFormat settings, BVOP                    : 1\nFormat settings, QPel                    : No\nFormat settings, GMC                     : No warppoints\nFormat settings, Matrix                  : Default (H.263)\nMuxing mode                              : Packed bitstream\nCodec ID                                 : DX50\nCodec ID/Hint                            : DivX 5\nDuration                                 : 2h 37mn\nBit rate                                 : 1 301 Kbps\nWidth                                    : 720 pixels\nHeight                                   : 300 pixels\nDisplay aspect ratio                     : 2.40:1\nFrame rate                               : 30.000 fps\nColor space                              : YUV\nChroma subsampling                       : 4:2:0\nBit depth                                : 8 bits\nScan type                                : Progressive\nCompression mode                         : Lossy\nBits/(Pixel*Frame)                       : 0.201\nStream size                              : 1.43 GiB (86%)\nTitle                                    : Video \nWriting library                          : DivX 2682\n\nAudio\nID                                       : 1\nFormat                                   : MPEG Audio\nFormat version                           : Version 1\nFormat profile                           : Layer 3\nMode                                     : Joint stereo\nMode extension                           : MS Stereo\nCodec ID                                 : 55\nCodec ID/Hint                            : MP3\nDuration                                 : 2h 37mn\nBit rate mode                            : Constant\nBit rate                                 : 192 Kbps\nChannel(s)                               : 2 channels\nSampling rate                            : 48.0 KHz\nCompression mode                         : Lossy\nStream size                              : 217 MiB (13%)\nAlignment                                : Split accross interleaves\nInterleave, duration                     : 33 ms (1.00 video frame)\nInterleave, preload duration             : 500 ms\nTitle                                    : Audio - en-US01\n\n","torrent":{"xt":"urn:btih:004379c9b5c290d36af9189f66df257b96b98a7b","amp;dn":"2012+%282009%29+EESTI+SUB","amp;tr":["udp%3A%2F%2Ftracker.openbittorrent.com%3A80","udp%3A%2F%2Fopen.demonii.com%3A1337","udp%3A%2F%2Ftracker.coppersurfer.tk%3A6969","udp%3A%2F%2Fexodus.desync.com%3A6969"],"infoHash":"004379c9b5c290d36af9189f66df257b96b98a7b","infoHashBuffer":{"type":"Buffer","data":[0,67,121,201,181,194,144,211,106,249,24,159,102,223,37,123,150,185,138,123]},"announce":[],"urlList":[]}}